<svg width="17" height="16" viewBox="0 0 17 16" fill="none" xmlns="http://www.w3.org/2000/svg">
<path d="M14.5 14H12.5C12.5 15.1046 13.3954 16 14.5 16V14ZM14.5 14V16C15.6046 16 16.5 15.1046 16.5 14H14.5ZM14.5 14H16.5C16.5 12.8954 15.6046 12 14.5 12V14ZM14.5 12C13.3954 12 12.5 12.8954 12.5 14H14.5V12ZM8.5 14H6.5C6.5 15.1046 7.39543 16 8.5 16V14ZM8.5 14V16C9.60457 16 10.5 15.1046 10.5 14H8.5ZM8.5 14H10.5C10.5 12.8954 9.60457 12 8.5 12V14ZM8.5 12C7.39543 12 6.5 12.8954 6.5 14H8.5V12ZM2.5 14H0.5C0.5 15.1046 1.39543 16 2.5 16V14ZM2.5 14V16C3.60457 16 4.5 15.1046 4.5 14H2.5ZM2.5 14H4.5C4.5 12.8954 3.60457 12 2.5 12V14ZM2.5 12C1.39543 12 0.5 12.8954 0.5 14H2.5V12ZM14.5 8H12.5C12.5 9.10457 13.3954 10 14.5 10V8ZM14.5 8V10C15.6046 10 16.5 9.10457 16.5 8H14.5ZM14.5 8H16.5C16.5 6.89543 15.6046 6 14.5 6V8ZM14.5 6C13.3954 6 12.5 6.89543 12.5 8H14.5V6ZM8.5 8H6.5C6.5 9.10457 7.39543 10 8.5 10V8ZM8.5 8V10C9.60457 10 10.5 9.10457 10.5 8H8.5ZM8.5 8H10.5C10.5 6.89543 9.60457 6 8.5 6V8ZM8.5 6C7.39543 6 6.5 6.89543 6.5 8H8.5V6ZM2.5 8H0.5C0.5 9.10457 1.39543 10 2.5 10V8ZM2.5 8V10C3.60457 10 4.5 9.10457 4.5 8H2.5ZM2.5 8H4.5C4.5 6.89543 3.60457 6 2.5 6V8ZM2.5 6C1.39543 6 0.5 6.89543 0.5 8H2.5V6ZM14.5 2H12.5C12.5 3.10457 13.3954 4 14.5 4V2ZM14.5 2V4C15.6046 4 16.5 3.10457 16.5 2H14.5ZM14.5 2H16.5C16.5 0.895431 15.6046 0 14.5 0V2ZM14.5 0C13.3954 0 12.5 0.895431 12.5 2H14.5V0ZM8.5 2H6.5C6.5 3.10457 7.39543 4 8.5 4V2ZM8.5 2V4C9.60457 4 10.5 3.10457 10.5 2H8.5ZM8.5 2H10.5C10.5 0.895431 9.60457 0 8.5 0V2ZM8.5 0C7.39543 0 6.5 0.895431 6.5 2H8.5V0ZM2.5 2H0.5C0.5 3.10457 1.39543 4 2.5 4V2ZM2.5 2V4C3.60457 4 4.5 3.10457 4.5 2H2.5ZM2.5 2H4.5C4.5 0.895431 3.60457 0 2.5 0V2ZM2.5 0C1.39543 0 0.5 0.895431 0.5 2H2.5V0Z" fill="white"/>
</svg>
