<svg width="22" height="22" viewBox="0 0 22 22" fill="none" xmlns="http://www.w3.org/2000/svg">
<path d="M11 10.9999V9.9999C10.4477 9.9999 10 10.4476 10 10.9999H11ZM11.085 10.9999H12.085C12.085 10.4476 11.6373 9.9999 11.085 9.9999V10.9999ZM11.085 11.0768V12.0768C11.6373 12.0768 12.085 11.6291 12.085 11.0768H11.085ZM11 11.0768H10C10 11.6291 10.4477 12.0768 11 12.0768V11.0768ZM19.6 10.9999C19.6 15.7496 15.7497 19.5999 11 19.5999V21.5999C16.8542 21.5999 21.6 16.8541 21.6 10.9999H19.6ZM11 19.5999C6.25038 19.5999 2.40002 15.7496 2.40002 10.9999H0.400024C0.400024 16.8541 5.14581 21.5999 11 21.5999V19.5999ZM2.40002 10.9999C2.40002 6.25025 6.25038 2.3999 11 2.3999V0.399902C5.14581 0.399902 0.400024 5.14568 0.400024 10.9999H2.40002ZM11 2.3999C15.7497 2.3999 19.6 6.25025 19.6 10.9999H21.6C21.6 5.14568 16.8542 0.399902 11 0.399902V2.3999ZM14.8 10.9999C14.8 13.0986 13.0987 14.7999 11 14.7999V16.7999C14.2033 16.7999 16.8 14.2032 16.8 10.9999H14.8ZM11 14.7999C8.90134 14.7999 7.20002 13.0986 7.20002 10.9999H5.20002C5.20002 14.2032 7.79677 16.7999 11 16.7999V14.7999ZM7.20002 10.9999C7.20002 8.90122 8.90134 7.1999 11 7.1999V5.1999C7.79677 5.1999 5.20002 7.79665 5.20002 10.9999H7.20002ZM11 7.1999C13.0987 7.1999 14.8 8.90122 14.8 10.9999H16.8C16.8 7.79665 14.2033 5.1999 11 5.1999V7.1999ZM11 11.9999H11.085V9.9999H11V11.9999ZM10.085 10.9999V11.0768H12.085V10.9999H10.085ZM11.085 10.0768H11V12.0768H11.085V10.0768ZM12 11.0768V10.9999H10V11.0768H12Z" fill="#00B0EF"/>
</svg>
