<svg width="24" height="24" viewBox="0 0 24 24" fill="none" xmlns="http://www.w3.org/2000/svg">
<path d="M22.0957 12.5998C22.0957 12.0475 21.648 11.5998 21.0957 11.5998C20.5434 11.5998 20.0957 12.0475 20.0957 12.5998H22.0957ZM11.4957 3.9998C12.048 3.9998 12.4957 3.55209 12.4957 2.9998C12.4957 2.44752 12.048 1.9998 11.4957 1.9998V3.9998ZM17.2957 12.5998C17.2957 12.0475 16.848 11.5998 16.2957 11.5998C15.7434 11.5998 15.2957 12.0475 15.2957 12.5998H17.2957ZM11.4957 8.7998C12.048 8.7998 12.4957 8.35209 12.4957 7.7998C12.4957 7.24752 12.048 6.7998 11.4957 6.7998V8.7998ZM16.4454 8.87078C16.836 8.48025 16.836 7.84709 16.4454 7.45657C16.0549 7.06604 15.4217 7.06604 15.0312 7.45657L16.4454 8.87078ZM10.7886 11.6992C10.3981 12.0897 10.3981 12.7229 10.7886 13.1134C11.1791 13.5039 11.8123 13.5039 12.2028 13.1134L10.7886 11.6992ZM22.1043 5.19392L22.8114 5.90102C23.0793 5.63319 23.1728 5.23702 23.053 4.87769C22.9332 4.51835 22.6207 4.25753 22.2457 4.20397L22.1043 5.19392ZM18.2859 9.01229L17.9697 9.96098C18.329 10.0808 18.7252 9.98723 18.993 9.7194L18.2859 9.01229ZM14.8918 5.61818L14.1847 4.91107C13.9169 5.17891 13.8234 5.57507 13.9431 5.93441L14.8918 5.61818ZM18.7102 1.7998L19.7002 1.65838C19.6466 1.28342 19.3858 0.9709 19.0264 0.851121C18.6671 0.731343 18.2709 0.824866 18.0031 1.0927L18.7102 1.7998ZM15.7404 8.16377L14.7917 8.47999C14.8912 8.7786 15.1255 9.01291 15.4241 9.11245L15.7404 8.16377ZM19.1345 4.76965L18.1445 4.91107C18.2074 5.35105 18.5531 5.69675 18.993 5.7596L19.1345 4.76965ZM20.0957 12.5998C20.0957 17.3495 16.2453 21.1998 11.4957 21.1998V23.1998C17.3499 23.1998 22.0957 18.454 22.0957 12.5998H20.0957ZM11.4957 21.1998C6.74604 21.1998 2.89569 17.3495 2.89569 12.5998H0.895691C0.895691 18.454 5.64147 23.1998 11.4957 23.1998V21.1998ZM2.89569 12.5998C2.89569 7.85016 6.74604 3.9998 11.4957 3.9998V1.9998C5.64147 1.9998 0.895691 6.74559 0.895691 12.5998H2.89569ZM15.2957 12.5998C15.2957 14.6985 13.5944 16.3998 11.4957 16.3998V18.3998C14.6989 18.3998 17.2957 15.8031 17.2957 12.5998H15.2957ZM11.4957 16.3998C9.39701 16.3998 7.69569 14.6985 7.69569 12.5998H5.69569C5.69569 15.8031 8.29244 18.3998 11.4957 18.3998V16.3998ZM7.69569 12.5998C7.69569 10.5011 9.39701 8.7998 11.4957 8.7998V6.7998C8.29244 6.7998 5.69569 9.39655 5.69569 12.5998H7.69569ZM15.0312 7.45657L10.7886 11.6992L12.2028 13.1134L16.4454 8.87078L15.0312 7.45657ZM21.3972 4.48681L17.5788 8.30519L18.993 9.7194L22.8114 5.90102L21.3972 4.48681ZM15.5989 6.32529L19.4173 2.50691L18.0031 1.0927L14.1847 4.91107L15.5989 6.32529ZM18.6022 8.06361L16.0566 7.21508L15.4241 9.11245L17.9697 9.96098L18.6022 8.06361ZM16.689 7.84754L15.8405 5.30195L13.9431 5.93441L14.7917 8.47999L16.689 7.84754ZM17.7203 1.94123L18.1445 4.91107L20.1244 4.62823L19.7002 1.65838L17.7203 1.94123ZM18.993 5.7596L21.9629 6.18387L22.2457 4.20397L19.2759 3.7797L18.993 5.7596Z" fill="#00B0EF"/>
</svg>
