<svg id="Layer_1" data-name="Layer 1" xmlns="http://www.w3.org/2000/svg" viewBox="0 0 1000 152.05"><defs><style>.cls-1{fill:#00b0ef;}.cls-2{fill:#fff;}</style></defs><path class="cls-1" d="M6.81,134.07v-123C6.81,6.81,5.11,4.79,0,3.4V0H45.33V3.4c-5.11,1.28-6.81,3.41-6.81,7.67v123c0,4.36,1.81,6.49,6.81,7.77v3.4H0v-3.4C5.11,140.45,6.81,138.43,6.81,134.07Z"/><path class="cls-1" d="M101.5,66.72v67.67c0,4.36,1.81,6.6,6.81,8v2.87H68.73v-3c5-1.27,6.81-3.51,6.81-7.87V36.92c0-4.36-1.7-6.28-6.81-7.87v-3h45.75v3c-3.08.74-4.68,2.13-4.68,4.15,0,1.7,1.17,3.72,3.41,6l63.84,63.41V36.92c0-4.36-1.7-6.49-6.81-7.87v-3h39.58v3c-5.11,1.38-6.81,3.51-6.81,7.87v97.47c0,4.36,1.7,6.38,6.81,8v2.87H167.15v-2.87c3.09-.64,4.69-1.92,4.69-3.94a5.07,5.07,0,0,0-1.28-3.08c-.85-1.07-2.77-3.19-5.85-6.28Z"/><path class="cls-1" d="M345.36,36.82,331,64.59l-2.56-1.39a7.12,7.12,0,0,0-2.23-5.53q-6.07-5.43-17.88-8.94a83.58,83.58,0,0,0-23.94-3.51,53.83,53.83,0,0,0-18.3,2.87c-7.66,2.77-11.49,6.81-11.49,12,0,3.51,1.81,6,5.53,7.45S271,70.12,281.52,71l16.81,1.28c14.68,1.17,25.86,3.94,33.52,8.51A32.21,32.21,0,0,1,342.38,91a31.79,31.79,0,0,1,5.22,18c0,12.13-5.43,21.7-16.39,28.73-10.43,6.7-24.58,10.11-42.35,10.11a124.9,124.9,0,0,1-52-11.39,7.15,7.15,0,0,0-2.87-.74c-1.39,0-2.77.85-3.94,2.55l-2.66-1.06L239.59,108l2.66,1.06v.86a6.25,6.25,0,0,0,2.13,4.68c3.52,3.08,9.69,5.85,18.41,8.19a103.85,103.85,0,0,0,25.86,3.41,62.61,62.61,0,0,0,20.21-3c7.35-2.45,11.07-6.28,11.07-11.71,0-4.36-2.55-7.34-7.66-9-3.41-1.17-9.58-2.13-18.41-2.88l-16.7-1.38c-9.05-.74-15.86-1.59-20.65-2.77a41,41,0,0,1-12.45-5c-9-5.64-14.47-16.06-14.47-27.66,0-13.09,5.64-23,16.81-29.9,10.22-6.28,22.88-9.37,37.88-9.37a90.85,90.85,0,0,1,22.78,2.77,146.3,146.3,0,0,1,25.32,9.47c2.87,1.38,4.9,2,6.07,2s2.55-.74,4.36-2.34Z"/><path class="cls-2" d="M457,143.22,403.44,44.9v89.17c0,4.36,1.71,6.38,6.81,7.77v3.4H367.59v-3.4c5.1-1.39,6.81-3.41,6.81-7.77v-123c0-4.26-1.71-6.28-6.81-7.67V0h56V3.4c-3.3.86-5,2.77-5,5.86A11.16,11.16,0,0,0,420,14.15l39.59,73,40.11-71.72c1.81-3.3,2.66-5.64,2.66-7.13,0-2.87-1.81-4.58-5.32-4.9V0H552V3.4c-5.11,1.39-6.81,3.41-6.81,7.67v123c0,4.36,1.7,6.38,6.81,7.77v3.4H506.66v-3.4c5-1.28,6.81-3.41,6.81-7.77V44.9Z"/><path class="cls-2" d="M610.8,94.59v29.05h75.66c4.36,0,6.49-1.7,7.87-6.91h3v35.32h-3c-1.28-5-3.51-6.81-7.87-6.81h-111v-3c5-1.27,6.81-3.51,6.81-7.87V36.92c0-4.36-1.7-6.28-6.81-7.87v-3H683.16c4.57,0,6.59-1.7,8-6.81H694V54.59h-2.87c-1.39-5.22-3.41-6.92-8-6.92H610.8V73.85h44.9c4.37,0,6.39-1.71,8-6.81h2.87v34.47h-2.87c-1.39-5.11-3.41-6.92-8-6.92Z"/><path class="cls-2" d="M831.79,102.57l18,26.18-2.45,1.81a8.37,8.37,0,0,0-4-1.81c-1.17,0-4,1.28-8.4,3.94-9.69,5.64-18.31,9.57-25.76,11.81a90.12,90.12,0,0,1-25.75,3.3c-19.47,0-35.32-4.69-47.56-13.94a59.66,59.66,0,0,1-16.6-20,61.82,61.82,0,0,1-6.59-28.19,59.9,59.9,0,0,1,12.13-37q19-25.06,58.41-25.12A91.55,91.55,0,0,1,809,26.81q11.33,3.36,25.86,11.82c4.36,2.65,7.23,3.93,8.4,3.93a8.37,8.37,0,0,0,4-1.81l2.45,1.92-18,26.07L829.45,67a8.39,8.39,0,0,1,.21-1.6,7.42,7.42,0,0,0,.11-1.38q0-5.28-14.37-11.81A65.15,65.15,0,0,0,788,46Q768.63,46,756,56.18c-9.58,7.66-14.37,17.45-14.37,29.48s4.79,21.92,14.37,29.58c8.41,6.7,19,10.11,31.92,10.11,10.11,0,20.11-2.56,30.11-7.56,7.77-3.94,11.71-7.45,11.71-10.43,0-.1-.11-1.17-.32-3Z"/><path class="cls-2" d="M964.67,93.42h-66.5v41c0,4.36,1.7,6.38,6.81,8v2.87H862.84v-3c5-1.27,6.81-3.51,6.81-7.87V36.92c0-4.36-1.7-6.28-6.81-7.87v-3H905v3c-5.11,1.38-6.81,3.51-6.81,7.87v34.9h66.5V36.92c0-4.36-1.59-6.28-6.81-7.87v-3H1000v3c-5.11,1.38-6.81,3.51-6.81,7.87v97.47c0,4.36,1.7,6.38,6.81,8v2.87H957.86v-3c5-1.27,6.81-3.51,6.81-7.87Z"/></svg>